<svg width="20" height="20" viewBox="0 0 20 20" fill="none" xmlns="http://www.w3.org/2000/svg">
<path d="M13.5303 7.53033C13.8232 7.23744 13.8232 6.76256 13.5303 6.46967C13.2374 6.17678 12.7625 6.17678 12.4696 6.46967L13.5303 7.53033ZM6.46961 12.4697C6.17672 12.7626 6.17672 13.2374 6.46961 13.5303C6.76251 13.8232 7.23738 13.8232 7.53027 13.5303L6.46961 12.4697ZM7.5304 6.46967C7.2375 6.17678 6.76263 6.17678 6.46973 6.46967C6.17684 6.76256 6.17684 7.23744 6.46973 7.53033L7.5304 6.46967ZM12.4697 13.5303C12.7626 13.8232 13.2375 13.8232 13.5304 13.5303C13.8233 13.2374 13.8233 12.7626 13.5304 12.4697L12.4697 13.5303ZM12.4696 6.46967L6.46961 12.4697L7.53027 13.5303L13.5303 7.53033L12.4696 6.46967ZM6.46973 7.53033L12.4697 13.5303L13.5304 12.4697L7.5304 6.46967L6.46973 7.53033ZM18.25 10C18.25 14.5563 14.5563 18.25 10 18.25V19.75C15.3848 19.75 19.75 15.3848 19.75 10H18.25ZM10 18.25C5.44365 18.25 1.75 14.5563 1.75 10H0.25C0.25 15.3848 4.61522 19.75 10 19.75V18.25ZM1.75 10C1.75 5.44365 5.44365 1.75 10 1.75V0.25C4.61522 0.25 0.25 4.61522 0.25 10H1.75ZM10 1.75C14.5563 1.75 18.25 5.44365 18.25 10H19.75C19.75 4.61522 15.3848 0.25 10 0.25V1.75Z" fill="white"/>
</svg>